<svg width="113" height="27" viewBox="0 0 113 27" fill="none" xmlns="http://www.w3.org/2000/svg">
<path d="M17.01 13.92L17.1 7.29C17.08 7.15 17 7.08 16.86 7.08C16.74 7.08 16.63 7.15 16.53 7.29C15.55 9.73 14.31 13.1 12.81 17.4C11.33 21.68 10.55 23.93 10.47 24.15C10.41 24.37 10.22 24.63 9.9 24.93C9.58 25.25 9.3 25.41 9.06 25.41C8.82 25.41 8.7 25.22 8.7 24.84C8.68 24.7 8.65 24.04 8.61 22.86C8.57 21.66 8.51 20.44 8.43 19.2C8.35 17.96 8.24 16.68 8.1 15.36C7.98 14.02 7.8 12.93 7.56 12.09C7.32 11.23 7.05 10.8 6.75 10.8C6.23 10.8 4.76 14.9 2.34 23.1C2.02 24.22 1.85 24.8 1.83 24.84C1.75 25.1 1.56 25.32 1.26 25.5C0.98 25.7 0.71 25.8 0.45 25.8C0.23 25.8 0.12 25.64 0.12 25.32C0.26 21.2 0.33 17.79 0.33 15.09C0.33 9.99 0.25 6.56 0.09 4.8L0 3.81C0 3.67 0.14 3.47 0.42 3.21C0.7 2.93 0.96 2.79 1.2 2.79C1.44 2.79 1.56 3.01 1.56 3.45V3.66L1.62 6.18V7.41C1.62 15.03 1.57 19.64 1.47 21.24C1.47 21.6 1.5 21.78 1.56 21.78C1.62 21.78 2.45 19.34 4.05 14.46C5.67 9.56 6.57 6.81 6.75 6.21C6.93 5.61 7.16 5.16 7.44 4.86C7.72 4.54 8.02 4.38 8.34 4.38C8.8 4.38 9.18 5.69 9.48 8.31C9.78 10.93 10.01 13.55 10.17 16.17C10.35 18.79 10.48 20.1 10.56 20.1C10.66 20.1 10.93 19.53 11.37 18.39C11.81 17.25 12.31 15.87 12.87 14.25C13.45 12.63 14.02 11.01 14.58 9.39C15.96 5.51 16.72 3.61 16.86 3.69C16.82 3.67 16.88 3.59 17.04 3.45C17.52 3.05 17.91 2.83 18.21 2.79C18.65 2.85 18.87 3.12 18.87 3.6V4.38C18.87 5.88 18.9 7.08 18.96 7.98C19.56 17.96 21.79 22.95 25.65 22.95C25.97 22.95 26.26 22.86 26.52 22.68C26.78 22.5 26.95 22.41 27.03 22.41C27.13 22.41 27.24 22.47 27.36 22.59C27.48 22.71 27.54 22.84 27.54 22.98C27.54 23.5 26.99 24.11 25.89 24.81C24.81 25.53 23.75 25.89 22.71 25.89C18.91 25.89 17.01 21.9 17.01 13.92Z" fill="#111111"/>
<path d="M29.7084 20.97C30.0484 20.85 30.3884 20.47 30.7284 19.83C31.0884 19.17 31.2684 18.63 31.2684 18.21C31.2684 17.79 31.1084 17.57 30.7884 17.55C30.3084 17.55 29.9684 17.77 29.7684 18.21C29.5684 18.63 29.4684 19.1 29.4684 19.62C29.4684 20.12 29.5484 20.57 29.7084 20.97ZM32.2884 22.92C32.8484 22.92 33.3084 22.8 33.6684 22.56C34.0484 22.3 34.3984 21.97 34.7184 21.57C35.0584 21.17 35.3184 20.97 35.4984 20.97C35.6984 20.97 35.7984 21.06 35.7984 21.24C35.7984 21.36 35.7584 21.5 35.6784 21.66C35.0184 22.72 34.1984 23.65 33.2184 24.45C32.2384 25.27 31.1984 25.68 30.0984 25.68C28.9984 25.68 28.1984 25.41 27.6984 24.87C27.2184 24.35 26.9784 23.65 26.9784 22.77C26.9784 21.25 27.5484 19.7 28.6884 18.12C29.8284 16.52 31.0084 15.72 32.2284 15.72C32.8684 15.72 33.1884 15.98 33.1884 16.5C33.1884 17.2 32.9684 17.93 32.5284 18.69C32.0884 19.43 31.2784 20.44 30.0984 21.72C30.6384 22.52 31.3684 22.92 32.2884 22.92Z" fill="#111111"/>
<path d="M41.0047 13.05C41.0047 15.51 41.2147 17.52 41.6347 19.08C42.1347 17.8 42.5447 16.37 42.8647 14.79C43.2047 13.19 43.3747 12.06 43.3747 11.4C43.3747 9.28 43.1047 8.22 42.5647 8.22C42.1047 8.22 41.7247 8.8 41.4247 9.96C41.1447 11.1 41.0047 12.13 41.0047 13.05ZM45.4447 22.89L46.5847 22.59C46.8447 22.59 46.9747 22.7 46.9747 22.92C46.9747 23.1 46.8047 23.38 46.4647 23.76C46.1247 24.12 45.6347 24.5 44.9947 24.9C44.3547 25.3 43.7347 25.5 43.1347 25.5C41.8147 25.5 40.8647 24.78 40.2847 23.34C39.1247 24.76 37.8047 25.47 36.3247 25.47C35.5647 25.47 35.0147 25.19 34.6747 24.63C34.3347 24.09 34.1647 23.41 34.1647 22.59C34.1647 21.49 34.7647 20.36 35.9647 19.2C37.1847 18.04 38.1447 17.46 38.8447 17.46C39.0247 17.46 39.1447 17.57 39.2047 17.79C39.2047 17.95 38.9447 18.2 38.4247 18.54C37.6447 19.02 37.2547 19.64 37.2547 20.4C37.2547 21.24 37.4847 21.78 37.9447 22.02C38.2847 22.22 38.5947 22.32 38.8747 22.32C39.1747 22.32 39.4947 22.18 39.8347 21.9C39.6147 20.82 39.5047 19.52 39.5047 18C39.5047 16.46 39.6247 14.84 39.8647 13.14C40.1247 11.42 40.5347 9.86 41.0947 8.46C41.6747 7.06 42.3247 6.36 43.0447 6.36C43.5047 6.36 43.8447 6.68 44.0647 7.32C44.2847 7.96 44.3947 8.75 44.3947 9.69C44.3947 10.63 44.1947 12.19 43.7947 14.37C43.4147 16.53 42.8347 18.51 42.0547 20.31C42.7947 22.03 43.9247 22.89 45.4447 22.89Z" fill="#111111"/>
<path d="M47.3974 15.09C47.0974 14.75 46.9474 14.33 46.9474 13.83C46.9474 13.33 47.0974 12.91 47.3974 12.57C47.7174 12.23 48.1074 12.06 48.5674 12.06C49.0274 12.06 49.4074 12.23 49.7074 12.57C50.0274 12.91 50.1874 13.33 50.1874 13.83C50.1874 14.33 50.0274 14.75 49.7074 15.09C49.4074 15.43 49.0274 15.6 48.5674 15.6C48.1074 15.6 47.7174 15.43 47.3974 15.09ZM53.6374 21.63C53.8374 21.47 54.0174 21.39 54.1774 21.39C54.4574 21.39 54.5974 21.57 54.5974 21.93C54.5974 22.43 53.9774 23.18 52.7374 24.18C51.4974 25.16 50.4274 25.65 49.5274 25.65C48.6274 25.65 47.9274 25.33 47.4274 24.69C46.9274 24.05 46.6774 23.23 46.6774 22.23C46.6774 21.21 46.8474 20.23 47.1874 19.29C47.5274 18.35 47.8674 17.88 48.2074 17.88C48.3674 17.9 48.4474 18.15 48.4474 18.63C48.4474 19.09 48.5174 19.6 48.6574 20.16C48.7974 20.72 49.0974 21.26 49.5574 21.78C50.0374 22.28 50.6474 22.53 51.3874 22.53C52.1474 22.53 52.8974 22.23 53.6374 21.63Z" fill="#111111"/>
<path d="M61.0687 20.58L60.9487 21.42C60.9487 21.78 61.0987 22.16 61.3987 22.56C61.7187 22.94 62.0887 23.13 62.5087 23.13C62.8287 23.13 63.0887 23.06 63.2887 22.92C63.7287 22.62 63.9987 22.42 64.0987 22.32C64.2187 22.2 64.3987 22.14 64.6387 22.14C64.8987 22.14 65.0287 22.23 65.0287 22.41C65.0287 22.61 64.5587 23.24 63.6187 24.3C63.3187 24.64 62.8787 25 62.2987 25.38C61.7187 25.76 61.1987 25.95 60.7387 25.95C60.2987 25.95 59.9587 25.87 59.7187 25.71C59.4987 25.57 59.3387 25.34 59.2387 25.02C59.1187 24.58 59.0587 24.04 59.0587 23.4C59.0587 23.32 59.0087 23.28 58.9087 23.28C58.8087 23.28 58.5787 23.48 58.2187 23.88C57.0987 25.04 56.1887 25.62 55.4887 25.62C54.8087 25.62 54.2787 25.44 53.8987 25.08C53.5387 24.72 53.3587 24.26 53.3587 23.7C53.3587 22.72 53.6187 21.79 54.1387 20.91C54.6587 20.01 55.2787 19.29 55.9987 18.75C57.5987 17.57 58.8387 16.98 59.7187 16.98C61.0387 17.02 61.6987 17.49 61.6987 18.39C61.6987 18.71 61.5587 19.03 61.2787 19.35C60.9987 19.65 60.7387 19.8 60.4987 19.8C60.2587 19.8 59.9287 19.59 59.5087 19.17C59.0887 18.75 58.6287 18.54 58.1287 18.54C57.6287 18.54 57.2187 18.75 56.8987 19.17C56.5787 19.57 56.4187 20.09 56.4187 20.73C56.4187 21.77 56.9687 22.29 58.0687 22.29C58.5087 22.29 58.8687 22.18 59.1487 21.96C59.4487 21.74 59.6587 21.5 59.7787 21.24C60.1187 20.56 60.4287 20.22 60.7087 20.22C60.9487 20.22 61.0687 20.34 61.0687 20.58Z" fill="#111111"/>
<path d="M77.3419 16.17C77.2019 16.17 77.0719 16.12 76.9519 16.02C76.8519 15.92 76.8019 15.8 76.8019 15.66C76.8019 15.52 77.0319 15.19 77.4919 14.67C77.9719 14.15 78.5319 13.6 79.1719 13.02C79.8119 12.42 80.5719 11.92 81.4519 11.52C82.3319 11.12 83.2219 10.91 84.1219 10.89C84.7219 10.89 85.1919 11.04 85.5319 11.34C85.8719 11.62 86.0419 11.95 86.0419 12.33C86.0419 12.71 85.7019 13.29 85.0219 14.07C84.3419 14.83 83.7419 15.21 83.2219 15.21C83.1019 15.21 82.9019 15.14 82.6219 15C82.3619 14.84 82.0919 14.76 81.8119 14.76C81.5519 14.76 80.9419 14.9 79.9819 15.18C79.0419 15.44 78.4019 15.67 78.0619 15.87C77.7419 16.07 77.5019 16.17 77.3419 16.17ZM76.5019 17.88L76.7119 7.29C76.6719 7.19 76.6119 7.14 76.5319 7.14C76.1919 7.16 75.9219 7.27 75.7219 7.47C75.5419 7.65 75.4519 7.84 75.4519 8.04C75.4519 8.24 75.4219 9.25 75.3619 11.07C75.1419 16.53 75.0319 20.24 75.0319 22.2L75.0619 24.78V25.23C75.0619 25.39 75.1219 25.59 75.2419 25.83C75.3819 26.07 75.5619 26.19 75.7819 26.19C76.0219 26.19 76.2719 26.1 76.5319 25.92C76.8119 25.74 76.9519 25.5 76.9519 25.2C76.9519 24.92 76.8719 23.78 76.7119 21.78C76.5719 19.76 76.5019 18.46 76.5019 17.88ZM86.4019 4.02L84.8419 3.87C82.4219 3.87 77.8119 5.76 71.0119 9.54C70.8119 9.64 70.6719 9.69 70.5919 9.69C70.5319 9.69 70.5019 9.55 70.5019 9.27C70.5019 8.97 70.6319 8.35 70.8919 7.41C71.1519 6.47 71.4119 5.92 71.6719 5.76C78.0719 1.92 83.4319 0 87.7519 0C88.8319 0 89.3719 0.35 89.3719 1.05C89.3719 1.51 89.0119 2.12 88.2919 2.88C87.5919 3.64 86.9619 4.02 86.4019 4.02Z" fill="#111111"/>
<path d="M88.327 21.27C87.387 21.27 86.647 21.03 86.107 20.55C85.567 20.07 85.257 19.46 85.177 18.72C84.857 18.96 84.697 19.41 84.697 20.07C84.697 20.71 84.877 21.28 85.237 21.78C85.617 22.26 86.077 22.5 86.617 22.5C87.177 22.5 87.597 22.36 87.877 22.08C88.177 21.8 88.327 21.53 88.327 21.27ZM89.497 19.26C89.557 19.44 89.627 19.53 89.707 19.53C89.807 19.53 89.967 19.48 90.187 19.38C90.407 19.26 90.597 19.2 90.757 19.2C90.917 19.2 90.997 19.3 90.997 19.5C90.997 19.7 90.777 20.03 90.337 20.49C89.917 20.95 89.557 21.18 89.257 21.18C88.837 22.32 88.137 23.38 87.157 24.36C86.197 25.32 85.207 25.8 84.187 25.8C83.467 25.8 82.867 25.56 82.387 25.08C81.907 24.62 81.667 23.94 81.667 23.04C81.667 22.12 82.047 21.13 82.807 20.07C83.567 18.99 84.347 18.45 85.147 18.45V18.33C85.147 17.89 85.297 17.54 85.597 17.28C85.897 17 86.267 16.86 86.707 16.86C88.067 16.86 88.997 17.66 89.497 19.26Z" fill="#111111"/>
<path d="M90.0552 20.49L89.2452 20.55C88.8852 20.55 88.7052 20.46 88.7052 20.28C88.7052 20 89.0552 19.47 89.7552 18.69C90.4752 17.89 91.1152 17.49 91.6752 17.49C91.9152 17.49 92.1252 17.56 92.3052 17.7C92.5052 17.84 92.6152 18.01 92.6352 18.21L92.7852 19.56C92.8452 19.64 92.9052 19.68 92.9652 19.68C93.0252 19.68 93.1852 19.52 93.4452 19.2C94.2852 18.22 95.0352 17.73 95.6952 17.73C95.9552 17.73 96.1652 17.77 96.3252 17.85C96.4852 17.93 96.6652 18.09 96.8652 18.33C97.0852 18.55 97.2052 18.67 97.2252 18.69C97.3652 18.63 97.5052 18.6 97.6452 18.6C97.8652 18.6 97.9752 18.74 97.9752 19.02C97.9752 19.28 97.5852 19.78 96.8052 20.52C96.0252 21.24 95.4452 21.6 95.0652 21.6C94.6852 21.6 94.3652 21.43 94.1052 21.09C93.8452 20.75 93.6552 20.58 93.5352 20.58C93.0752 20.58 92.8452 20.82 92.8452 21.3C92.8452 21.66 93.0052 22.27 93.3252 23.13C93.6652 23.99 93.8352 24.5 93.8352 24.66C93.8352 25.06 93.6252 25.37 93.2052 25.59C92.8052 25.83 92.3552 25.95 91.8552 25.95C91.3752 25.95 90.9852 25.87 90.6852 25.71C90.3852 25.55 90.2352 25.33 90.2352 25.05L91.0752 21.42C91.0752 20.8 90.7352 20.49 90.0552 20.49Z" fill="#111111"/>
<path d="M99.3401 20.55C99.3401 21.25 99.5501 21.85 99.9701 22.35C100.39 22.83 100.94 23.07 101.62 23.07C102.32 23.07 102.89 22.99 103.33 22.83C103.79 22.65 104.14 22.48 104.38 22.32C104.62 22.14 104.8 22.05 104.92 22.05C105.1 22.05 105.19 22.14 105.19 22.32C105.19 22.94 104.61 23.67 103.45 24.51C102.29 25.37 100.94 25.8 99.4001 25.8C98.4201 25.8 97.6801 25.55 97.1801 25.05C96.7001 24.57 96.4601 23.93 96.4601 23.13C96.4601 21.69 97.0701 20.26 98.2901 18.84C99.5301 17.4 100.95 16.68 102.55 16.68C102.93 16.68 103.23 16.8 103.45 17.04C103.69 17.26 103.81 17.59 103.81 18.03C103.81 18.45 103.56 18.93 103.06 19.47C102.58 19.99 102.09 20.25 101.59 20.25C101.45 20.25 101.38 20.18 101.38 20.04C101.38 19.9 101.45 19.75 101.59 19.59C101.75 19.43 101.83 19.24 101.83 19.02C101.83 18.78 101.75 18.55 101.59 18.33C101.45 18.11 101.29 18 101.11 18C100.57 18 100.14 18.25 99.8201 18.75C99.5001 19.23 99.3401 19.83 99.3401 20.55Z" fill="#111111"/>
<path d="M106.897 20.97C107.237 20.85 107.577 20.47 107.917 19.83C108.277 19.17 108.457 18.63 108.457 18.21C108.457 17.79 108.297 17.57 107.977 17.55C107.497 17.55 107.157 17.77 106.957 18.21C106.757 18.63 106.657 19.1 106.657 19.62C106.657 20.12 106.737 20.57 106.897 20.97ZM109.477 22.92C110.037 22.92 110.497 22.8 110.857 22.56C111.237 22.3 111.587 21.97 111.907 21.57C112.247 21.17 112.507 20.97 112.687 20.97C112.887 20.97 112.987 21.06 112.987 21.24C112.987 21.36 112.947 21.5 112.867 21.66C112.207 22.72 111.387 23.65 110.407 24.45C109.427 25.27 108.387 25.68 107.287 25.68C106.187 25.68 105.387 25.41 104.887 24.87C104.407 24.35 104.167 23.65 104.167 22.77C104.167 21.25 104.737 19.7 105.877 18.12C107.017 16.52 108.197 15.72 109.417 15.72C110.057 15.72 110.377 15.98 110.377 16.5C110.377 17.2 110.157 17.93 109.717 18.69C109.277 19.43 108.467 20.44 107.287 21.72C107.827 22.52 108.557 22.92 109.477 22.92Z" fill="#111111"/>
</svg>
